<svg width="142px" height="58px" viewBox="0 0 142 58" version="1.1" xmlns="http://www.w3.org/2000/svg" xmlns:xlink="http://www.w3.org/1999/xlink">
    <title>icon/logo/OBSS@2x</title>
    <defs>
        <polygon id="path-1" points="0.0458457799 0.0834018341 65.5750783 0.0834018341 65.5750783 33.7733622 0.0458457799 33.7733622"></polygon>
        <polygon id="path-3" points="0 0.0834018341 68.2810723 0.0834018341 68.2810723 33.7733622 0 33.7733622"></polygon>
        <polygon id="path-5" points="0.137565727 0.0834018341 66.9883774 0.0834018341 66.9883774 33.7733622 0.137565727 33.7733622"></polygon>
        <polygon id="path-7" points="0.0443838247 0.119831846 8.50427862 0.119831846 8.50427862 17.5067261 0.0443838247 17.5067261"></polygon>
    </defs>
    <g id="Symbols" stroke="none" stroke-width="1" fill="none" fill-rule="evenodd">
        <g id="Group-19-Copy">
            <path d="M17.7419194,36.9336311 C17.6329115,36.9464303 17.5231939,36.9565994 17.4133343,36.964314 C17.5236197,36.9573007 17.6329115,36.9455536 17.7419194,36.9336311" id="Fill-1" fill="#050302"></path>
            <path d="M17.8335434,36.9298312 C17.8058945,36.9324611 17.7789501,36.9347404 17.750949,36.937195 C17.7789501,36.9347404 17.8058945,36.9326365 17.8335434,36.9298312" id="Fill-3" fill="#050302"></path>
            <path d="M17.4130646,36.9597886 C17.2499786,36.9703084 17.085757,36.9783736 16.9196902,36.9783736 C17.0853312,36.9783736 17.2499786,36.9713604 17.4130646,36.9597886" id="Fill-5" fill="#050302"></path>
            <g id="Group-9" transform="translate(76.362321, 11.608993)">
                <mask id="mask-2" fill="white">
                    <use xlink:href="#path-1"></use>
                </mask>
                <g id="Clip-8"></g>
                <path d="M48.6554307,0.0834018341 C32.4531346,0.0834018341 26.976622,18.387151 17.8797122,23.8356846 C16.2894456,24.7881217 14.5893194,25.3509639 12.7011262,25.3509639 L12.7011262,25.3457354 C12.6226348,25.3484203 12.5445693,25.3509639 12.4660779,25.3509639 C10.586259,25.3509639 8.85036458,24.7393693 7.44589401,23.7070915 C4.57677143,24.5932536 2.03637586,26.2211579 0.0458457799,28.3628695 C3.13610683,31.6891924 7.55561162,33.7733904 12.4660779,33.7733904 C12.545137,33.7733904 12.6226348,33.7681619 12.7011262,33.7671727 L12.7011262,33.7733904 C21.8549529,33.7733904 27.5842561,27.9297509 32.4778318,21.8629811 C37.5183127,15.6136373 41.67353,9.13282585 47.7669026,8.55260231 C47.788477,8.5499174 47.8109032,8.54836298 47.8324776,8.546102 C47.9421952,8.53649284 48.0513451,8.52688369 48.1619143,8.52094862 C48.3254262,8.51162208 48.4897897,8.50596964 48.6554307,8.50596964 C53.327726,8.50596964 57.1153255,12.2765748 57.1153255,16.9283961 C57.1153255,19.7061492 55.7640814,22.1686371 53.6811501,23.7029934 C53.6794469,23.7044065 53.6774597,23.7056783 53.6757565,23.7070915 C52.2712859,24.7393693 50.5353915,25.3509639 48.6554307,25.3509639 C46.7754698,25.3509639 45.0395754,24.7393693 43.6351049,23.7070915 C40.7661242,24.5932536 38.2257287,26.2211579 36.2350566,28.3628695 C39.3253177,31.6891924 43.7448225,33.7733904 48.6554307,33.7733904 C53.5654711,33.7733904 57.9849759,31.6891924 61.075237,28.3628695 C61.5182236,27.8865097 61.9335324,27.3844312 62.3191763,26.859743 C64.3647781,24.0745004 65.5750783,20.6429007 65.5750783,16.9283961 C65.5750783,7.62489469 57.9995955,0.0834018341 48.6554307,0.0834018341" id="Fill-7" fill="#00A3E0" mask="url(#mask-2)"></path>
            </g>
            <g id="Group-12" transform="translate(0.000000, 11.608993)">
                <mask id="mask-4" fill="white">
                    <use xlink:href="#path-3"></use>
                </mask>
                <g id="Clip-11"></g>
                <path d="M52.8741934,0.0834018341 C43.721786,0.0834018341 37.992341,5.92520431 33.099475,11.9911263 C28.0578586,18.2407527 23.9024993,24.7234012 17.8084171,25.3044726 C17.7861329,25.3067335 17.7641326,25.3084293 17.7418484,25.310549 C17.6328405,25.3202994 17.5236906,25.329626 17.4132633,25.335561 C17.2496095,25.3450289 17.0853879,25.3509639 16.919747,25.3509639 C12.2473098,25.3509639 8.45985221,21.5800762 8.45985221,16.9283961 C8.45985221,12.2765748 12.2473098,8.50596964 16.919747,8.50596964 C21.5920423,8.50596964 25.3794999,12.2765748 25.3794999,16.9283961 C25.3794999,17.5589264 25.3073957,18.1729233 25.1755358,18.7643104 C26.607968,17.2124315 28.034155,15.3909309 29.5334398,13.4746106 C30.4388584,12.3179789 31.3641483,11.1363352 32.3264839,9.96783337 C29.6654416,4.13903152 23.7700717,0.0834018341 16.919747,0.0834018341 C7.5751564,0.0834018341 -4.25812197e-05,7.62489469 -4.25812197e-05,16.9283961 C-4.25812197e-05,26.231615 7.5751564,33.7733904 16.919747,33.7733904 C27.882282,33.7733904 33.9342088,25.392792 39.5198713,18.2841352 C39.5955239,18.1879023 39.6710346,18.091952 39.7465453,17.9960018 C39.813114,17.9119217 39.8796826,17.8274176 39.9459674,17.7431962 C40.0512849,17.610505 40.1560347,17.478803 40.2606426,17.347101 C40.3009528,17.2969356 40.3409791,17.2459223 40.3812894,17.1958981 C40.5032136,17.0431408 40.6255636,16.8912313 40.747204,16.7400284 C40.7710495,16.710353 40.7953208,16.6803951 40.8191662,16.6510024 C40.9508841,16.4880706 41.0828859,16.3259867 41.2147458,16.1655986 C41.2297911,16.1472282 41.2446946,16.128999 41.2597399,16.1106286 C41.3984128,15.9416204 41.5375114,15.7740254 41.6764681,15.6079849 C41.6848424,15.5982344 41.6930748,15.5882013 41.7013072,15.5784508 C41.8452317,15.4064752 41.989724,15.2364779 42.1342162,15.0681763 C42.1376227,15.0643609 42.1410292,15.0601216 42.1442938,15.0560235 C45.1265405,11.5823131 48.1764913,8.91619587 51.9828265,8.55274363 L52.0088011,8.54977609 C52.0232787,8.54878691 52.0373305,8.5473738 52.0512404,8.54638462 C52.1605322,8.53649284 52.269682,8.52716631 52.3801093,8.52094862 C52.5437631,8.51246995 52.7075589,8.50596964 52.8741934,8.50596964 C57.5464887,8.50596964 61.3340882,12.2765748 61.3340882,16.9283961 C61.3340882,17.5589264 61.2617001,18.1729233 61.1298403,18.7643104 C62.5622725,17.2124315 63.9887434,15.3909309 65.4877442,13.4746106 C66.393021,12.3179789 67.3185948,11.1363352 68.2810723,9.96783337 C65.6196041,4.13903152 59.7243762,0.0834018341 52.8741934,0.0834018341" id="Fill-10" fill="#003145" mask="url(#mask-4)"></path>
            </g>
            <g id="Group-15" transform="translate(37.329536, 11.608993)">
                <mask id="mask-6" fill="white">
                    <use xlink:href="#path-5"></use>
                </mask>
                <g id="Clip-14"></g>
                <path d="M51.498891,0.0834018341 C32.4643761,0.0834018341 28.2343577,25.3509639 15.5445865,25.3509639 C10.8722912,25.3509639 7.08483366,21.5800762 7.08483366,16.9283961 C7.08483366,16.2974419 7.15693786,15.6835863 7.28851382,15.0920579 C5.85636547,16.6443607 4.43003655,18.4655787 2.93060986,20.3820404 C2.02547507,21.5388133 1.10004323,22.7204571 0.137565727,23.8888176 C2.79889196,29.7177607 8.69426182,33.7733904 15.5445865,33.7733904 C15.7529506,33.7733904 15.9604631,33.7685859 16.1668401,33.7608137 C24.9587264,33.5019317 30.5399888,27.7902768 35.321434,21.8629811 C40.3619149,15.6136373 44.5169903,9.13282585 50.6103629,8.55260231 C50.6319373,8.5499174 50.6543635,8.54836298 50.6759379,8.546102 C50.7856556,8.53649284 50.8949473,8.52688369 51.0055166,8.52094862 C51.1688865,8.51162208 51.33325,8.50596964 51.498891,8.50596964 C56.1711863,8.50596964 59.9587858,12.2765748 59.9587858,16.9283961 C59.9587858,17.678193 59.8573005,18.4038257 59.6723561,19.0956851 C61.2286997,17.4563345 62.763043,15.4960664 64.3466385,13.4726322 C65.2043662,12.3769057 66.08012,11.2585693 66.9883774,10.1499834 C64.3680711,4.22339427 58.4207521,0.0834018341 51.498891,0.0834018341" id="Fill-13" fill="#003145" mask="url(#mask-6)"></path>
            </g>
            <g id="Group-18" transform="translate(35.910162, 0.021479)">
                <mask id="mask-8" fill="white">
                    <use xlink:href="#path-7"></use>
                </mask>
                <g id="Clip-17"></g>
                <path d="M0.0443838247,4.16017166 L0.0443838247,17.5067261 C2.48797809,15.0529995 5.23787325,12.9036571 8.50427862,11.5022745 L8.50427862,0.119803583 C5.44921804,1.01854243 2.60039251,2.39392374 0.0443838247,4.16017166" id="Fill-16" fill="#003145" mask="url(#mask-8)"></path>
            </g>
        </g>
    </g>
</svg>